<svg width="170" height="45" viewBox="0 0 170 45" xmlns="http://www.w3.org/2000/svg">
<path d="M26.7285 22.5162C26.6794 17.5147 30.7667 15.0775 30.9536 14.9639C28.6341 11.5473 25.0439 11.0837 23.7821 11.0477C20.7668 10.7293 17.8441 12.8798 16.3081 12.8812C14.7416 12.8829 12.3746 11.0896 9.82557 11.1448C6.54532 11.1992 3.4786 13.1248 1.79817 16.1121C-1.66935 22.2035 0.929662 31.1475 4.26242 36.0652C5.92926 38.4751 7.87724 41.1627 10.4232 41.0656C12.9139 40.9609 13.8429 39.456 16.8489 39.4532C19.8272 39.4505 20.7026 41.0558 23.2991 40.9929C25.9724 40.9483 27.6532 38.5677 29.2574 36.1343C31.1784 33.3717 31.9483 30.6491 31.9787 30.5094C31.9173 30.4876 26.7866 28.5093 26.7285 22.5162ZM21.8092 7.81239C23.1473 6.11488 24.0618 3.80642 23.8051 1.46484C21.8659 1.5536 19.4423 2.82685 18.0472 4.48719C16.8133 5.95026 15.7119 8.34737 15.9991 10.6004C18.1776 10.7628 20.4128 9.48342 21.8092 7.81239Z"/>
<path d="M62.8397 38.3361L59.3127 38.3395L57.3747 32.2956L50.6592 32.302L48.8243 38.3496L45.3906 38.3529L52.0258 17.7637L56.1354 17.7596L62.8397 38.3361ZM56.7902 29.7597L55.0377 24.3866C54.8524 23.8376 54.5032 22.5451 53.9916 20.5102H53.9296C53.7254 21.3859 53.399 22.6793 52.9518 24.3885L51.2393 29.7649L56.7902 29.7597ZM79.9133 30.7164C79.9158 33.2406 79.2298 35.2365 77.8536 36.7026C76.6218 38.0075 75.0892 38.6603 73.2614 38.6618C71.2876 38.6639 69.8671 37.9646 69.0043 36.5611L69.0112 44.3485L65.7001 44.3516L65.6848 28.37C65.683 26.7844 65.6397 25.1591 65.5572 23.4919L68.4696 23.4891L68.6566 25.8414H68.7186C69.8212 24.0678 71.4959 23.1799 73.7452 23.1777C75.5031 23.1759 76.9712 23.8659 78.1468 25.2491C79.3208 26.6354 79.9116 28.4569 79.9133 30.7164ZM76.5402 30.8404C76.5386 29.3957 76.2112 28.2053 75.5549 27.2671C74.8384 26.2918 73.8761 25.8041 72.6715 25.8053C71.8546 25.806 71.1125 26.0788 70.4495 26.6161C69.7856 27.1581 69.3512 27.8653 69.1488 28.7409C69.0468 29.1493 68.9958 29.4819 68.9958 29.7449L68.9984 32.2211C68.9992 33.299 69.3325 34.2098 69.998 34.9548C70.6637 35.6964 71.5273 36.0682 72.59 36.0672C73.837 36.066 74.8069 35.5843 75.5006 34.6291C76.195 33.6711 76.5419 32.4087 76.5402 30.8404ZM97.0551 30.7001C97.0574 33.2241 96.372 35.2201 94.9953 36.6862C93.7618 37.9912 92.2309 38.6439 90.4015 38.6456C88.4276 38.6475 87.0072 37.9482 86.1435 36.5447L86.1511 44.332L82.8401 44.3352L82.8248 28.3536C82.8231 26.768 82.7797 25.1426 82.6973 23.4755L85.6096 23.4727L85.7967 25.825H85.8587C86.9596 24.0514 88.6342 23.1635 90.8852 23.1613C92.6415 23.1595 94.1095 23.8495 95.2881 25.2328C96.4603 26.619 97.0528 28.4405 97.0551 30.7001ZM93.6803 30.8239C93.6785 29.3795 93.3495 28.1889 92.6933 27.2507C91.9767 26.2753 91.0178 25.7876 89.8132 25.7889C88.9955 25.7896 88.2542 26.0625 87.5877 26.5996C86.9239 27.1418 86.4912 27.8488 86.2888 28.7246C86.1877 29.1329 86.1342 29.4654 86.1342 29.7285L86.1367 32.2046C86.1375 33.2826 86.4725 34.1934 87.1346 34.9383C87.8003 35.6784 88.6639 36.0518 89.7299 36.0507C90.9779 36.0496 91.9486 35.5679 92.6406 34.6126C93.3351 33.6548 93.6819 32.3924 93.6803 30.8239ZM116.221 32.5115C116.224 34.264 115.61 35.6889 114.389 36.7897C113.045 37.9912 111.168 38.5948 108.761 38.597C106.537 38.5992 104.754 38.174 103.407 37.3199L104.171 34.5707C105.623 35.4262 107.219 35.8515 108.955 35.85C110.203 35.8487 111.174 35.5663 111.867 35.0073C112.559 34.4469 112.91 33.6979 112.91 32.7636C112.909 31.927 112.618 31.2266 112.047 30.6565C111.473 30.0878 110.525 29.5584 109.194 29.0723C105.574 27.7317 103.762 25.7676 103.758 23.1817C103.757 21.4928 104.395 20.1096 105.672 19.0272C106.947 17.9463 108.639 17.4051 110.746 17.4031C112.626 17.4013 114.193 17.726 115.438 18.376L114.61 21.0648C113.439 20.435 112.116 20.1207 110.638 20.1221C109.469 20.123 108.554 20.4101 107.899 20.98C107.348 21.4895 107.069 22.11 107.07 22.8461C107.07 23.6582 107.39 24.3322 108.024 24.8607C108.574 25.3471 109.577 25.8767 111.028 26.4446C112.809 27.1574 114.117 27.9881 114.956 28.9432C115.8 29.8979 116.221 31.0902 116.221 32.5115ZM127.191 25.9076L123.541 25.9112L123.548 33.1169C123.551 34.9498 124.194 35.8631 125.484 35.8618C126.075 35.8613 126.566 35.8114 126.953 35.7075L127.048 38.2113C126.396 38.455 125.537 38.5777 124.473 38.579C123.166 38.5802 122.144 38.1836 121.405 37.3893C120.669 36.595 120.299 35.2637 120.297 33.3891L120.29 25.908L118.115 25.9102L118.113 23.4356L120.287 23.4334L120.284 20.716L123.535 19.7354L123.539 23.4303L127.189 23.4267L127.191 25.9076ZM143.631 30.7159C143.633 32.9971 142.979 34.8708 141.672 36.3368C140.307 37.8461 138.487 38.5996 136.218 38.6018C134.028 38.6037 132.287 37.8831 130.987 36.4413C129.687 34.9962 129.036 33.175 129.033 30.9773C129.032 28.6774 129.701 26.793 131.036 25.3271C132.375 23.8595 134.179 23.1247 136.448 23.1225C138.634 23.1206 140.392 23.8425 141.723 25.286C142.994 26.6858 143.629 28.4949 143.631 30.7159ZM140.199 30.795C140.197 29.4353 139.902 28.2695 139.308 27.2941C138.613 26.1163 137.619 25.5281 136.331 25.5292C135.005 25.5304 133.989 26.1207 133.296 27.2998C132.704 28.2764 132.41 29.4629 132.411 30.8641C132.413 32.2252 132.708 33.3941 133.303 34.3667C134.02 35.5446 135.019 36.1328 136.313 36.1316C137.578 36.1303 138.57 35.5277 139.287 34.3315C139.895 33.3317 140.199 32.1576 140.199 30.795ZM154.394 26.3069C154.067 26.2467 153.716 26.2162 153.35 26.2165C152.186 26.2178 151.286 26.6548 150.652 27.5337C150.104 28.3076 149.828 29.2853 149.829 30.4654L149.837 38.253L146.526 38.2559L146.516 28.0885C146.514 26.3794 146.479 24.8205 146.414 23.4162L149.299 23.4134L149.423 26.2528H149.515C149.865 25.2766 150.413 24.4887 151.168 23.8988C151.905 23.3676 152.702 23.1022 153.56 23.1013C153.866 23.1011 154.142 23.1225 154.389 23.1612L154.394 26.3069ZM169.206 30.1114C169.207 30.7023 169.169 31.2001 169.087 31.6073L159.154 31.6167C159.192 33.0829 159.674 34.2055 160.598 34.9777C161.437 35.6668 162.518 36.0122 163.847 36.0108C165.318 36.0094 166.66 35.7761 167.867 35.3065L168.388 37.5934C166.978 38.2073 165.313 38.5136 163.392 38.5155C161.081 38.5175 159.267 37.8418 157.945 36.4913C156.626 35.1394 155.965 33.3212 155.963 31.0428C155.96 28.8063 156.573 26.9421 157.799 25.4546C159.084 23.8665 160.821 23.0711 163.009 23.0693C165.157 23.0672 166.782 23.8591 167.888 25.4449C168.764 26.7014 169.205 28.2601 169.206 30.1114ZM166.049 29.2592C166.071 28.2802 165.852 27.4374 165.403 26.7249C164.829 25.8066 163.946 25.3497 162.765 25.3509C161.682 25.352 160.8 25.7997 160.131 26.6975C159.579 27.411 159.253 28.268 159.153 29.2628L166.049 29.2592Z" />
<path d="M55.5522 4.27828L54.3229 4.27945C54.2499 3.92756 54.1224 3.61842 53.9403 3.35216C53.7616 3.08589 53.5433 2.86237 53.2853 2.68173C53.0308 2.49759 52.7481 2.35981 52.4372 2.26804C52.1264 2.17614 51.8026 2.13037 51.4655 2.13072C50.8509 2.1313 50.2942 2.28639 49.7955 2.59611C49.3001 2.90582 48.9056 3.36192 48.612 3.96415C48.3219 4.56651 48.1772 5.30513 48.1779 6.18026C48.1789 7.05527 48.3248 7.79366 48.6164 8.39544C48.9111 8.99721 49.3065 9.45249 49.8024 9.76128C50.3018 10.0698 50.8587 10.224 51.4734 10.2234C51.8105 10.2232 52.1344 10.1768 52.4449 10.0842C52.7553 9.99188 53.0377 9.85526 53.2919 9.67391C53.5496 9.48943 53.7676 9.26394 53.9457 8.99721C54.1272 8.72734 54.2542 8.41797 54.3265 8.06922L55.556 8.06806C55.4638 8.58468 55.2958 9.04705 55.0516 9.45516C54.8075 9.86351 54.5036 10.2106 54.1404 10.4972C53.7773 10.7805 53.3693 10.9963 52.9167 11.1448C52.4673 11.2934 51.9867 11.3678 51.4745 11.3682C50.6086 11.3691 49.8383 11.1594 49.164 10.7389C48.4893 10.3183 47.9582 9.72015 47.571 8.94423C47.1837 8.1682 46.9893 7.2473 46.9883 6.1813C46.9872 5.11542 47.1796 4.19418 47.5655 3.41745C47.9515 2.64072 48.4813 2.0415 49.1551 1.61979C49.8289 1.19797 50.5987 0.986654 51.4644 0.985841C51.9766 0.985493 52.4576 1.05903 52.9072 1.20657C53.36 1.35422 53.7685 1.57089 54.1322 1.85679C54.496 2.13932 54.8004 2.48447 55.0452 2.89211C55.2901 3.29651 55.4592 3.75864 55.5522 4.27828Z"/>
<path d="M57.3862 11.2242L57.3789 3.6446L58.5488 3.64344L58.552 6.93971L59.3251 6.93902L62.0584 3.64007L63.5653 3.63867L60.4956 7.29323L63.6123 11.2181L62.1054 11.2196L59.604 8.0243L58.553 8.02535L58.5561 11.223L57.3862 11.2242Z"/>
<path d="M67.125 11.3925C66.6421 11.3929 66.2043 11.3029 65.8107 11.1222C65.4181 10.9384 65.1052 10.674 64.8731 10.3287C64.6419 9.98021 64.5254 9.5592 64.5254 9.06582C64.5246 8.63145 64.6104 8.27944 64.7821 8.00946C64.9538 7.73622 65.1834 7.52223 65.4707 7.36737C65.758 7.2124 66.0751 7.09704 66.4219 7.02106C66.7722 6.94172 67.1241 6.87899 67.4777 6.83252C67.9402 6.7728 68.3151 6.72808 68.6024 6.69822C68.8931 6.665 69.1048 6.61051 69.2374 6.53477C69.3726 6.45891 69.4397 6.32728 69.4397 6.13978V6.10028C69.4397 5.6134 69.3054 5.23526 69.0377 4.96574C68.7724 4.69622 68.3712 4.56169 67.8323 4.56227C67.2737 4.56285 66.836 4.68495 66.5188 4.92868C66.2018 5.17241 65.9791 5.43252 65.8507 5.7089L64.7396 5.3153C64.9377 4.85456 65.2013 4.49571 65.5319 4.23885C65.8651 3.97862 66.229 3.79728 66.6217 3.69493C67.0187 3.58921 67.408 3.53624 67.7915 3.53589C68.0362 3.53566 68.3168 3.56505 68.6338 3.62395C68.9552 3.67948 69.2637 3.796 69.5612 3.9734C69.8631 4.15068 70.1121 4.41857 70.311 4.77696C70.5099 5.13535 70.6093 5.61561 70.6093 6.21762L70.6145 11.2114L69.4448 11.2126L69.4439 10.1863H69.3844C69.3054 10.3508 69.1728 10.5268 68.9883 10.7144C68.803 10.9024 68.5573 11.0621 68.2497 11.194C67.9427 11.3258 67.5678 11.3921 67.125 11.3925ZM67.3026 10.3462C67.7651 10.3457 68.1552 10.2548 68.4724 10.0735C68.7928 9.8925 69.0334 9.65853 69.1948 9.37216C69.3598 9.0858 69.4423 8.78468 69.4423 8.46892L69.4414 7.40304C69.3913 7.46229 69.2824 7.51666 69.1141 7.56615C68.9493 7.61238 68.7571 7.65362 68.5395 7.6901C68.3245 7.72321 68.1144 7.75307 67.9096 7.77955C67.7081 7.80279 67.545 7.82266 67.4191 7.83927C67.1148 7.879 66.8308 7.94336 66.5664 8.03258C66.3055 8.1182 66.0938 8.24843 65.9324 8.42292C65.7741 8.59416 65.6951 8.82778 65.6951 9.12379C65.696 9.52853 65.8464 9.83418 66.1474 10.0413C66.4517 10.245 66.8368 10.3465 67.3026 10.3462Z"/>
<path d="M78.6111 3.62459L78.6188 11.204L77.449 11.2053L77.4414 3.62564L78.6111 3.62459ZM78.1589 7.23709L78.1597 8.32272C77.8954 8.4217 77.6335 8.50906 77.3717 8.58504C77.1107 8.65765 76.8369 8.7155 76.5496 8.75849C76.2623 8.79822 75.9461 8.81832 75.6027 8.81867C74.7399 8.81948 74.0479 8.58818 73.5251 8.12488C73.0057 7.66147 72.7456 6.96595 72.7447 6.03831L72.7422 3.61042L73.9118 3.60938L73.9144 6.03715C73.9153 6.4254 73.9892 6.74441 74.1388 6.99429C74.2876 7.24406 74.4891 7.42982 74.7441 7.55122C74.9983 7.67274 75.2847 7.73338 75.6018 7.73303C76.0974 7.73257 76.5454 7.68761 76.945 7.5985C77.3479 7.50603 77.7525 7.38556 78.1589 7.23709Z"/>
<path d="M83.0057 11.3775C82.5229 11.378 82.0851 11.2881 81.6915 11.1073C81.2988 10.9235 80.986 10.659 80.7538 10.3138C80.5227 9.96532 80.4063 9.54431 80.4063 9.05092C80.4053 8.61667 80.4912 8.26455 80.6629 7.99468C80.8346 7.72144 81.0641 7.50746 81.3514 7.35248C81.6388 7.19762 81.9559 7.08215 82.3028 7.00617C82.6529 6.92694 83.0049 6.86398 83.3585 6.81762C83.8209 6.75803 84.1958 6.71318 84.4831 6.68333C84.7739 6.65022 84.9855 6.59573 85.1173 6.51987C85.2533 6.44401 85.3205 6.31251 85.3205 6.12489V6.08539C85.3205 5.59863 85.1862 5.22037 84.9176 4.95085C84.6532 4.68133 84.2519 4.54692 83.713 4.54738C83.1544 4.54785 82.7167 4.67006 82.3997 4.91379C82.0825 5.15752 81.8598 5.41763 81.7314 5.69412L80.6205 5.30041C80.8184 4.83956 81.082 4.48081 81.4127 4.22384C81.746 3.96362 82.1098 3.78239 82.5025 3.68004C82.8994 3.57444 83.2888 3.52146 83.6722 3.521C83.917 3.52077 84.1975 3.55016 84.5146 3.60906C84.8359 3.6647 85.1445 3.78111 85.442 3.9585C85.743 4.1359 85.9929 4.40368 86.1918 4.76218C86.3898 5.12058 86.4902 5.60072 86.4902 6.20284L86.4953 11.1964L85.3256 11.1977L85.3248 10.1713H85.2652C85.1862 10.3358 85.0535 10.5119 84.8691 10.6998C84.6837 10.8875 84.4381 11.0472 84.1304 11.1791C83.8235 11.3111 83.4486 11.3772 83.0057 11.3775ZM83.1834 10.3313C83.6458 10.3308 84.0361 10.2398 84.3531 10.0586C84.6736 9.87749 84.9141 9.64375 85.0757 9.35727C85.2405 9.0709 85.323 8.7699 85.323 8.45403L85.3213 7.38815C85.272 7.44739 85.1632 7.50188 84.995 7.55137C84.83 7.59749 84.6378 7.63885 84.4194 7.67521C84.2052 7.70832 83.9952 7.73817 83.7904 7.76466C83.5889 7.7879 83.4257 7.80776 83.2999 7.82437C82.9955 7.86411 82.7116 7.92858 82.4472 8.01757C82.1862 8.10342 81.9746 8.23353 81.8131 8.40802C81.655 8.57926 81.5759 8.81288 81.5759 9.10901C81.5768 9.51352 81.7272 9.8194 82.0281 10.0264C82.3325 10.2302 82.7175 10.3316 83.1834 10.3313Z"/>
<path d="M87.5877 4.70166L87.5859 3.61603L93.7728 3.61011L93.7736 4.69574L91.2752 4.69806L91.2813 11.1919L90.1115 11.1931L90.1056 4.69922L87.5877 4.70166Z"/>
<path d="M96.4927 6.35106L98.6744 6.34897C99.5655 6.34804 100.249 6.57271 100.721 7.023C101.194 7.47317 101.431 8.04381 101.432 8.73457C101.432 9.18857 101.327 9.60168 101.116 9.97355C100.905 10.3422 100.595 10.6369 100.186 10.8576C99.7757 11.0753 99.2739 11.1842 98.6779 11.1848L95.4866 11.1878L95.4785 3.60834L96.6495 3.60718L96.6553 10.1011L98.6779 10.0991C99.1403 10.0988 99.5202 9.97657 99.8176 9.73295C100.114 9.48922 100.262 9.1766 100.262 8.79498C100.262 8.3936 100.113 8.06646 99.8152 7.81344C99.5178 7.56041 99.1368 7.43413 98.6744 7.4346L96.4939 7.43657L96.4927 6.35106Z"/>
<path d="M107.142 11.1767L107.135 3.59702L110.247 3.594C111.067 3.5933 111.718 3.77697 112.201 4.14489C112.684 4.51292 112.926 4.99957 112.926 5.60482C112.927 6.06533 112.79 6.42245 112.516 6.67605C112.242 6.92629 111.89 7.09613 111.461 7.18524C111.742 7.2245 112.015 7.3229 112.279 7.48055C112.547 7.63831 112.768 7.85509 112.943 8.13134C113.119 8.40423 113.207 8.73974 113.207 9.13763C113.207 9.52588 113.108 9.87312 112.911 10.1793C112.712 10.4853 112.429 10.7273 112.059 10.9054C111.689 11.0833 111.246 11.1727 110.731 11.173L107.142 11.1767ZM108.251 10.1095L110.729 10.1073C111.133 10.107 111.448 10.0112 111.676 9.82014C111.905 9.62904 112.019 9.36916 112.017 9.04016C112.017 8.64878 111.902 8.34127 111.675 8.11775C111.446 7.89098 111.131 7.77783 110.728 7.77818L108.249 7.7805L108.251 10.1095ZM108.248 6.77387L110.251 6.77201C110.564 6.77166 110.834 6.72868 111.058 6.64283C111.283 6.55384 111.454 6.4286 111.574 6.26736C111.696 6.10274 111.756 5.90862 111.756 5.68487C111.756 5.36574 111.623 5.11586 111.354 4.93521C111.087 4.75131 110.718 4.65953 110.248 4.66L108.247 4.66185L108.248 6.77387Z"/>
</svg>
