<svg width="152" height="37" viewBox="0 0 152 37" xmlns="http://www.w3.org/2000/svg">
<path d="M76.4465 20.8232C73.3058 20.826 70.8214 23.1839 70.8249 26.4553C70.8278 29.596 73.3166 32.08 76.4572 32.0771C79.5979 32.074 82.0817 29.7162 82.0788 26.4447C82.0752 23.0423 79.5872 20.8201 76.4465 20.8232ZM76.4551 29.7215C74.7539 29.7231 73.313 28.285 73.3108 26.3222C73.3094 24.3594 74.7474 22.9184 76.4479 22.9168C78.1499 22.9152 79.5901 24.2223 79.5922 26.3161C79.5944 28.2791 78.1556 29.7199 76.4551 29.7215ZM64.276 20.8349C61.1353 20.8377 58.6516 23.1956 58.6545 26.467C58.6581 29.6077 61.1468 32.0917 64.2875 32.0888C67.4282 32.0857 69.9119 29.7278 69.9091 26.4564C69.9055 23.054 67.4167 20.8318 64.276 20.8349ZM64.2846 29.7332C62.5834 29.7347 61.1432 28.2967 61.1411 26.3339C61.1389 24.3711 62.5769 22.9301 64.2782 22.9285C65.9794 22.9269 67.4203 24.234 67.4225 26.3278C67.4239 28.2908 65.9859 29.7316 64.2846 29.7332ZM49.7527 22.5499L49.7549 24.9054L55.3818 24.8999C55.2522 26.2087 54.7298 27.2561 54.0761 27.911C53.2918 28.6969 51.984 29.6142 49.7595 29.6164C46.2262 29.6198 43.6063 26.8741 43.6029 23.341C43.5996 19.8078 46.345 17.0571 49.7474 17.0538C51.5793 17.052 53.0196 17.8358 54.0673 18.7509L55.7669 17.0481C54.3261 15.7408 52.4931 14.6956 49.876 14.6981C45.165 14.7027 41.1121 18.6325 41.1166 23.3433C41.1212 28.0543 45.1816 31.9761 49.8926 31.9717C52.5096 31.9692 54.3411 31.1823 55.9097 29.4795C57.4785 27.9078 57.9997 25.6825 57.9982 23.9814C57.9975 23.458 57.9975 22.9346 57.8659 22.542L49.7527 22.5499ZM109.165 24.3248C108.64 23.0167 107.329 20.7935 104.45 20.7962C101.571 20.7989 99.2182 23.0259 99.221 26.4282C99.2239 29.5688 101.582 32.0529 104.723 32.0498C107.209 32.0474 108.778 30.4755 109.301 29.5591L107.468 28.2523C106.813 29.169 106.03 29.824 104.721 29.8252C103.412 29.8264 102.626 29.3038 101.971 28.1267L109.427 24.9789L109.165 24.3248ZM101.576 26.1641C101.574 24.0704 103.275 22.891 104.452 22.89C105.368 22.889 106.285 23.4116 106.547 24.0656L101.576 26.1641ZM95.4312 31.5353L97.9178 31.5329L97.9021 15.1755L95.4155 15.1779L95.4312 31.5353ZM91.4959 21.9864C90.841 21.3327 89.7939 20.6794 88.485 20.6807C85.7373 20.6832 83.1224 23.1722 83.1252 26.3127C83.1281 29.4534 85.6168 31.8066 88.4957 31.8036C89.8047 31.8025 90.8511 31.1472 91.3732 30.4923L91.5045 30.4922L91.5052 31.2773C91.5073 33.3711 90.3304 34.55 88.4986 34.5519C87.0592 34.5532 86.0113 33.5073 85.7488 32.5916L83.656 33.5095C84.3115 34.9484 85.8836 36.779 88.6313 36.7762C91.5102 36.7735 93.8641 35.07 93.8605 31.0134L93.8512 21.0681L91.4952 21.0703L91.4959 21.9864ZM88.6249 29.7098C86.9236 29.7114 85.4827 28.2733 85.4806 26.3105C85.4791 24.3477 86.9172 22.9068 88.6184 22.9051C90.3196 22.9035 91.6293 24.3418 91.6314 26.3046C91.6329 28.2675 90.3261 29.7082 88.6249 29.7098ZM120.54 15.1538L114.652 15.1594L114.668 31.5169L117.154 31.5145L117.148 25.3641L120.55 25.3609C123.298 25.3581 125.914 23.3928 125.911 20.2521C125.907 17.1116 123.289 15.1511 120.54 15.1538ZM120.679 23.0052L117.146 23.0086L117.14 17.3816L120.674 17.3782C122.505 17.3765 123.554 18.9458 123.556 20.1235C123.426 21.5631 122.38 23.0036 120.679 23.0052ZM135.725 20.6353C133.893 20.637 132.062 21.424 131.41 23.1258L133.635 24.0397C134.157 23.1231 134.943 22.8607 135.859 22.8598C137.167 22.8585 138.346 23.6425 138.478 24.9511V25.0819C138.085 24.8205 137.038 24.429 135.991 24.43C133.635 24.4322 131.281 25.7431 131.284 28.0985C131.286 30.3231 133.25 31.7608 135.344 31.7588C137.045 31.7571 137.829 30.9712 138.483 30.1854L138.613 30.1852L138.615 31.4939L140.97 31.4916L140.965 25.2102C140.7 22.3317 138.474 20.6326 135.725 20.6353ZM135.473 29.6648C134.687 29.6657 133.509 29.2741 133.508 28.2273C133.507 26.9187 134.946 26.5246 136.124 26.5236C137.17 26.5226 137.694 26.7838 138.349 27.0449C138.088 28.6154 136.781 29.6637 135.473 29.6648ZM149.205 21.0149L146.463 28.084L146.332 28.0841L143.447 21.0205L140.83 21.0231L145.157 30.9641L142.677 36.4627L145.162 36.4603L151.822 21.0124L149.205 21.0149ZM127.23 31.5048L129.716 31.5025L129.701 15.145L127.214 15.1474L127.23 31.5048Z"/>
<path d="M0.923136 2.18225C0.53089 2.57521 0.400714 3.22967 0.401431 4.01488L0.429188 32.9356C0.429976 33.7207 0.692335 34.375 1.0853 34.7672L1.21626 34.8979L17.4277 18.6552L17.4275 18.3934L0.923136 2.18225Z" fill="url(#paint0_linear_12_21760)"/>
<path d="M22.6675 24.1457L17.297 18.7854L17.2967 18.3929L22.6568 13.0223L22.7878 13.153L29.2036 16.8111C31.0367 17.8563 31.0384 19.5576 29.2073 20.6061L22.6675 24.1457Z" fill="url(#paint1_linear_12_21760)"/>
<path d="M22.7982 24.0151L17.2966 18.524L0.954437 34.8976C1.6094 35.5514 2.52543 35.5504 3.7026 35.0259L22.7982 24.0151Z" fill="url(#paint2_linear_12_21760)"/>
<path d="M22.7874 13.0227L3.67093 2.1794C2.49247 1.52615 1.57658 1.65791 0.922913 2.31287L17.2963 18.5242L22.7874 13.0227Z" fill="url(#paint3_linear_12_21760)"/>
<path opacity="0.2" d="M22.6671 23.8837L3.70224 34.6327C2.65597 35.2881 1.73979 35.158 1.08497 34.6352L0.954224 34.7661L1.08526 34.897C1.74008 35.4197 2.65625 35.5498 3.70246 34.8944L22.6671 23.8837Z" fill="white"/>
<path opacity="0.12" d="M0.953319 34.6354C0.560355 34.2431 0.42889 33.589 0.428101 32.8039L0.428244 32.9346C0.428961 33.7198 0.691319 34.3739 1.08428 34.7662L1.08421 34.6353L0.953319 34.6354ZM29.2059 20.2132L22.6664 23.8838L22.7973 24.0146L29.206 20.3442C30.1217 19.8199 30.5137 19.1651 30.513 18.5107C30.5137 19.1651 29.9907 19.6891 29.2059 20.2132Z" fill="white"/>
<path opacity="0.25" d="M3.67013 2.31067L29.2024 16.812C29.9881 17.3347 30.5121 17.8577 30.5127 18.5119C30.5121 17.8577 30.1188 17.2038 29.2022 16.6812L3.66991 2.17978C1.83685 1.13465 0.39811 1.92122 0.400118 4.01507L0.400262 4.14589C0.398325 2.18294 1.83699 1.26554 3.67013 2.31067Z"/>
<path d="M48.8955 2.79085L47.8583 2.79185C47.7968 2.49356 47.689 2.23156 47.5356 2.00592C47.3848 1.78021 47.2005 1.5908 46.983 1.4376C46.7681 1.28168 46.5297 1.16484 46.2674 1.08702C46.0052 1.00921 45.732 0.970404 45.4476 0.970691C44.929 0.971193 44.4593 1.10266 44.0385 1.36516C43.6206 1.62766 43.2878 2.01417 43.04 2.52462C42.7952 3.03513 42.6731 3.66119 42.6738 4.40286C42.6745 5.14454 42.7978 5.77031 43.0438 6.28032C43.2923 6.79034 43.6258 7.1762 44.0444 7.43784C44.4657 7.69955 44.9356 7.83016 45.4542 7.82966C45.7386 7.82937 46.0118 7.79007 46.2737 7.71175C46.5358 7.63343 46.7741 7.51753 46.9886 7.36397C47.2059 7.20762 47.3897 7.01641 47.5401 6.79041C47.6933 6.56169 47.8003 6.29947 47.8615 6.00384L48.8985 6.0029C48.821 6.44069 48.6792 6.83258 48.4732 7.1785C48.2672 7.52441 48.0109 7.81883 47.7044 8.06168C47.3981 8.3018 47.0538 8.48477 46.672 8.61057C46.2929 8.73644 45.8873 8.79955 45.4552 8.79998C44.7246 8.80063 44.0748 8.62283 43.5057 8.26644C42.9365 7.91013 42.4885 7.40313 42.1617 6.74544C41.8347 6.08775 41.6709 5.3072 41.6701 4.4038C41.6693 3.50046 41.8316 2.71955 42.1571 2.06122C42.4827 1.40289 42.9298 0.895025 43.4983 0.537635C44.0666 0.180174 44.7161 0.00108497 45.4467 0.00036775C45.8788 9.14076e-06 46.2846 0.0623349 46.6638 0.187418C47.046 0.3125 47.3906 0.496252 47.6976 0.738528C48.0043 0.978007 48.2612 1.27049 48.4678 1.61604C48.6745 1.9588 48.8171 2.3504 48.8955 2.79085Z"/>
<path d="M50.4435 8.67814L50.4372 2.25417L51.4243 2.25316L51.427 5.04694L52.0794 5.04629L54.3854 2.25036L55.6568 2.24915L53.0666 5.34652L55.6964 8.67312L54.4249 8.67434L52.3145 5.9662L51.4278 5.96706L51.4304 8.67721L50.4435 8.67814Z"/>
<path d="M58.6595 8.82077C58.2528 8.82113 57.883 8.74482 57.5512 8.59183C57.2192 8.43598 56.9556 8.21178 56.7601 7.91923C56.5646 7.62388 56.4667 7.26706 56.4664 6.84885C56.466 6.48078 56.5382 6.18241 56.6829 5.95362C56.8277 5.72203 57.0213 5.54065 57.2637 5.4094C57.5061 5.27807 57.7738 5.18025 58.0664 5.11584C58.3619 5.04864 58.6588 4.99535 58.9572 4.95604C59.3473 4.90548 59.6636 4.86754 59.906 4.84222C60.1513 4.81411 60.3299 4.76792 60.4418 4.70365C60.5558 4.63946 60.6132 4.52786 60.6125 4.36893V4.33543C60.6125 3.92282 60.4992 3.60229 60.2732 3.37386C60.0502 3.14543 59.7109 3.03146 59.2562 3.03189C58.785 3.03232 58.4157 3.13589 58.1481 3.34245C57.8808 3.54901 57.693 3.76948 57.5844 4.00379L56.6473 3.67014C56.8142 3.27962 57.0369 2.97545 57.3156 2.7577C57.597 2.53715 57.9036 2.38353 58.2349 2.29681C58.5699 2.20723 58.8983 2.16234 59.2218 2.16205C59.4284 2.16183 59.6658 2.18665 59.9333 2.23664C60.2037 2.28376 60.4647 2.38252 60.7158 2.53278C60.9697 2.68311 61.1798 2.91018 61.3476 3.21392C61.5155 3.51766 61.5994 3.92468 61.6001 4.43491L61.6037 8.66736L60.6168 8.66836L60.6161 7.79838L60.5659 7.79845C60.4992 7.93795 60.3873 8.0872 60.2316 8.24628C60.076 8.40536 59.868 8.54077 59.6091 8.65258C59.3495 8.76433 59.0332 8.82041 58.6595 8.82077ZM58.8094 7.934C59.1996 7.93357 59.5288 7.85661 59.7963 7.70299C60.0667 7.54943 60.2697 7.35126 60.4059 7.10856C60.5458 6.86585 60.6146 6.61066 60.6146 6.343L60.6139 5.43959C60.5716 5.4898 60.4798 5.53591 60.3378 5.57787C60.1987 5.61703 60.0366 5.65203 59.853 5.68294C59.6715 5.71099 59.4943 5.73623 59.3215 5.75868C59.1515 5.7784 59.0138 5.79526 58.9077 5.80932C58.6516 5.84303 58.4113 5.89761 58.189 5.97306C57.9681 6.04578 57.79 6.15609 57.6535 6.30398C57.5198 6.44907 57.4531 6.6471 57.4534 6.89805C57.4536 7.24103 57.5808 7.50023 57.8348 7.67559C58.0915 7.84822 58.4164 7.93436 58.8094 7.934Z"/>
<path d="M68.3512 2.23679L68.357 8.66083L67.3701 8.66177L67.3643 2.23779L68.3512 2.23679ZM67.9689 5.29866L67.9704 6.21871C67.7473 6.30262 67.5257 6.37671 67.3055 6.44104C67.0853 6.50258 66.8537 6.55164 66.6113 6.58807C66.3688 6.62178 66.1027 6.63878 65.8123 6.63907C65.085 6.63971 64.5005 6.44377 64.0594 6.05102C63.6212 5.65834 63.4017 5.06879 63.401 4.28258L63.3988 2.22488L64.3864 2.22388L64.3879 4.28157C64.3886 4.61063 64.4517 4.88102 64.5772 5.09275C64.7027 5.30454 64.8734 5.4619 65.0879 5.56489C65.303 5.66788 65.544 5.71917 65.8116 5.71895C66.2297 5.71852 66.6077 5.68051 66.9448 5.60491C67.2847 5.52652 67.6261 5.42446 67.9689 5.29866Z"/>
<path d="M72.0586 8.80796C71.652 8.80832 71.2819 8.73201 70.9505 8.57896C70.6185 8.42318 70.3545 8.19897 70.1594 7.90642C69.9636 7.61107 69.8661 7.25425 69.8654 6.83597C69.8654 6.46797 69.9371 6.16954 70.082 5.94081C70.2269 5.70923 70.4205 5.52784 70.6629 5.39652C70.9054 5.26527 71.1729 5.16744 71.4655 5.10303C71.761 5.03583 72.0579 4.98254 72.3563 4.94324C72.7464 4.89267 73.0627 4.85473 73.3052 4.82934C73.5512 4.8013 73.729 4.75511 73.8409 4.69085C73.955 4.62658 74.0123 4.51506 74.0116 4.35612V4.32263C74.0116 3.91001 73.8983 3.58942 73.6724 3.36105C73.4486 3.13262 73.1101 3.01865 72.6554 3.01908C72.1842 3.01952 71.8148 3.12301 71.5473 3.32964C71.2797 3.5362 71.0918 3.75667 70.9835 3.99099L70.0461 3.65727C70.2132 3.26674 70.4363 2.96264 70.7146 2.74489C70.9957 2.52435 71.3027 2.37072 71.634 2.28394C71.969 2.19443 72.2982 2.14953 72.6209 2.14917C72.8275 2.14896 73.0649 2.17384 73.3324 2.22376C73.6028 2.27095 73.8639 2.36964 74.1149 2.51997C74.3688 2.6703 74.5789 2.8973 74.7468 3.20111C74.9146 3.50486 74.9985 3.91181 74.9992 4.42203L75.0028 8.65455L74.0159 8.65548L74.0152 7.78557L73.965 7.78564C73.8983 7.92514 73.7864 8.07439 73.6308 8.23347C73.4751 8.39255 73.2672 8.52796 73.0082 8.6397C72.7486 8.75152 72.4323 8.8076 72.0586 8.80796ZM72.2085 7.92112C72.5987 7.92077 72.9279 7.84381 73.1954 7.69018C73.4658 7.53655 73.6688 7.33838 73.8051 7.09568C73.9449 6.85297 74.0138 6.59779 74.0138 6.33012L74.0131 5.42678C73.9707 5.47699 73.8789 5.52311 73.7369 5.56506C73.5978 5.60422 73.4357 5.63922 73.2521 5.67006C73.0706 5.69811 72.8935 5.72343 72.7206 5.74587C72.5507 5.76553 72.4129 5.78238 72.3068 5.79644C72.05 5.83015 71.8105 5.88473 71.5874 5.96025C71.3672 6.03298 71.1894 6.14328 71.0524 6.29117C70.919 6.43627 70.8523 6.63429 70.8523 6.88525C70.853 7.22822 70.9799 7.48735 71.2338 7.66278C71.4906 7.83542 71.8155 7.92155 72.2085 7.92112Z"/>
<path d="M75.9252 3.14969L75.9245 2.22957L81.1437 2.22455L81.1444 3.14467L79.0365 3.14667L79.0422 8.6506L78.0553 8.65154L78.0496 3.14768L75.9252 3.14969Z"/>
<path d="M83.4388 4.54772L85.2792 4.546C86.0323 4.54529 86.6082 4.73571 87.007 5.11734C87.4065 5.4989 87.6059 5.98245 87.6066 6.56798C87.6073 6.95277 87.5184 7.30277 87.3398 7.61799C87.1619 7.93048 86.9001 8.18022 86.5544 8.36741C86.2087 8.55174 85.7849 8.64419 85.2828 8.64462L82.5897 8.6472L82.5839 2.22322L83.5708 2.22229L83.5758 7.72615L85.2821 7.7245C85.6723 7.72414 85.9936 7.62072 86.2439 7.41408C86.4949 7.20753 86.6197 6.94259 86.6197 6.61912C86.619 6.27894 86.4935 6.00167 86.2424 5.78722C85.9914 5.57277 85.6708 5.46569 85.2799 5.46612L83.4403 5.46784L83.4388 4.54772Z"/>
<path d="M92.4232 8.6378L92.4167 2.21375L95.0439 2.21124C95.7346 2.2106 96.2847 2.36624 96.6921 2.67808C97.0987 2.99 97.3031 3.40247 97.3039 3.9155C97.3039 4.30581 97.1884 4.6084 96.9574 4.82335C96.7258 5.0355 96.4296 5.17938 96.0667 5.25497C96.3041 5.28825 96.5343 5.37166 96.7573 5.50528C96.9833 5.6389 97.1705 5.82272 97.3182 6.05682C97.466 6.28805 97.5405 6.57236 97.5405 6.90974C97.5413 7.2388 97.4574 7.533 97.2902 7.79249C97.1231 8.05191 96.8843 8.2571 96.5716 8.40793C96.2596 8.55884 95.8859 8.63443 95.4513 8.63486L92.4232 8.6378ZM93.3592 7.73353L95.4506 7.73153C95.7905 7.73117 96.0566 7.65005 96.2488 7.48817C96.4411 7.32623 96.5372 7.1059 96.5372 6.82711C96.5364 6.49526 96.4403 6.23469 96.2474 6.04527C96.0552 5.85306 95.7884 5.75717 95.4484 5.75746L93.357 5.75946L93.3592 7.73353ZM93.3563 4.90626L95.0461 4.90468C95.3107 4.9044 95.5381 4.86796 95.7281 4.79524C95.9175 4.71979 96.0624 4.61371 96.1621 4.47701C96.2653 4.33751 96.317 4.17291 96.317 3.98335C96.3163 3.71288 96.2036 3.50109 95.977 3.34796C95.7511 3.19204 95.4405 3.11429 95.0446 3.11465L93.3549 3.11623L93.3563 4.90626Z"/>
<defs>
<linearGradient id="paint0_linear_12_21760" x1="15.8431" y1="3.75138" x2="-6.09864" y2="25.7339" gradientUnits="userSpaceOnUse">
<stop stop-color="#00A0FF"/>
<stop offset="0.007" stop-color="#00A1FF"/>
<stop offset="0.26" stop-color="#00BEFF"/>
<stop offset="0.512" stop-color="#00D2FF"/>
<stop offset="0.76" stop-color="#00DFFF"/>
<stop offset="1" stop-color="#00E3FF"/>
</linearGradient>
<linearGradient id="paint1_linear_12_21760" x1="31.6054" y1="18.5114" x2="-0.059658" y2="18.5416" gradientUnits="userSpaceOnUse">
<stop stop-color="#FFE000"/>
<stop offset="0.409" stop-color="#FFBD00"/>
<stop offset="0.775" stop-color="#FFA500"/>
<stop offset="1" stop-color="#FF9C00"/>
</linearGradient>
<linearGradient id="paint2_linear_12_21760" x1="19.8212" y1="21.5263" x2="-9.93204" y2="51.3367" gradientUnits="userSpaceOnUse">
<stop stop-color="#FF3A44"/>
<stop offset="1" stop-color="#C31162"/>
</linearGradient>
<linearGradient id="paint3_linear_12_21760" x1="-3.14715" y1="-7.39851" x2="10.1653" y2="5.88834" gradientUnits="userSpaceOnUse">
<stop stop-color="#32A071"/>
<stop offset="0.069" stop-color="#2DA771"/>
<stop offset="0.476" stop-color="#15CF74"/>
<stop offset="0.801" stop-color="#06E775"/>
<stop offset="1" stop-color="#00F076"/>
</linearGradient>
</defs>
</svg>
